<svg xmlns="http://www.w3.org/2000/svg" width="348.437" height="348.938" viewBox="0 0 348.437 348.938">
  <metadata><?xpacket begin="﻿" id="W5M0MpCehiHzreSzNTczkc9d"?>
<x:xmpmeta xmlns:x="adobe:ns:meta/" x:xmptk="Adobe XMP Core 5.6-c138 79.159824, 2016/09/14-01:09:01        ">
   <rdf:RDF xmlns:rdf="http://www.w3.org/1999/02/22-rdf-syntax-ns#">
      <rdf:Description rdf:about=""/>
   </rdf:RDF>
</x:xmpmeta>
                                                                                                    
                                                                                                    
                                                                                                    
                                                                                                    
                                                                                                    
                                                                                                    
                                                                                                    
                                                                                                    
                                                                                                    
                                                                                                    
                                                                                                    
                                                                                                    
                                                                                                    
                                                                                                    
                                                                                                    
                                                                                                    
                                                                                                    
                                                                                                    
                                                                                                    
                                                                                                    
                           
<?xpacket end="w"?></metadata>
<defs>
    <style>
      .cls-1 {
        fill-rule: evenodd;
      }
    </style>
  </defs>
  <path id="Forma_1" data-name="Forma 1" class="cls-1" d="M174.562,159.389a28.412,28.412,0,1,1,28.37-28.412,9.99,9.99,0,1,0,19.98,0,48.476,48.476,0,0,0-38.361-47.42V70.752a9.99,9.99,0,1,0-19.979,0V83.557a48.457,48.457,0,0,0,9.99,95.84,28.412,28.412,0,1,1-28.371,28.412,9.99,9.99,0,1,0-19.979,0,48.368,48.368,0,0,0,38.36,47.32v19.008a9.99,9.99,0,1,0,19.979,0V255.129A48.4,48.4,0,0,0,174.562,159.389Zm0-158.766C78.462,0.623.343,78.855,0.343,175.1S78.462,349.568,174.562,349.568,348.78,271.335,348.78,175.1,270.662,0.623,174.562.623Zm0,328.937c-85.012,0-154.24-69.329-154.24-154.465S89.55,20.631,174.562,20.631,328.8,89.96,328.8,175.1,259.573,329.56,174.562,329.56Z" transform="translate(-0.344 -0.625)"/>
</svg>
