<svg xmlns="http://www.w3.org/2000/svg" width="21" height="16.5" viewBox="0 0 21 16.5">
  <g id="email_icon" transform="translate(0 -54.82)">
    <g id="Group_9" data-name="Group 9" transform="translate(0 54.82)">
      <path id="Path_19" data-name="Path 19" d="M2.016,59.906q.4.281,2.4,1.67t3.07,2.138q.117.082.5.358t.633.445q.252.17.609.381a3.535,3.535,0,0,0,.674.316,1.857,1.857,0,0,0,.586.105h.024a1.858,1.858,0,0,0,.586-.105,3.539,3.539,0,0,0,.674-.316q.357-.211.609-.381t.633-.445q.381-.276.5-.358L19,59.906a5.567,5.567,0,0,0,1.429-1.441A3.1,3.1,0,0,0,21,56.7a1.891,1.891,0,0,0-1.875-1.875H1.875a1.674,1.674,0,0,0-1.389.609A2.365,2.365,0,0,0,0,56.953a2.737,2.737,0,0,0,.645,1.6A5.817,5.817,0,0,0,2.016,59.906Z" transform="translate(0 -54.82)" fill="#656565"/>
      <path id="Path_20" data-name="Path 20" d="M19.828,185.456q-3.843,2.6-5.836,4.043-.668.492-1.084.768a6.69,6.69,0,0,1-1.107.562,3.372,3.372,0,0,1-1.289.287h-.024a3.373,3.373,0,0,1-1.289-.287,6.693,6.693,0,0,1-1.107-.562q-.416-.275-1.084-.768-1.582-1.16-5.824-4.043A6.208,6.208,0,0,1,0,184.437v9.3a1.805,1.805,0,0,0,.551,1.324,1.805,1.805,0,0,0,1.324.551h17.25A1.881,1.881,0,0,0,21,193.741v-9.3A6.463,6.463,0,0,1,19.828,185.456Z" transform="translate(0 -179.117)" fill="#656565"/>
    </g>
  </g>
</svg>
