<svg xmlns="http://www.w3.org/2000/svg" width="46" height="19.934" viewBox="0 0 46 19.934">
  <g id="left-arrow" transform="translate(0 -41.674)">
    <g id="Group_13" data-name="Group 13" transform="translate(0 41.674)">
      <path id="Path_26" data-name="Path 26" d="M44.651,49.759l.037.008H6.629l5.049-5.06a1.326,1.326,0,0,0,0-1.864l-.786-.786a1.314,1.314,0,0,0-1.855,0L.383,50.71a1.323,1.323,0,0,0,0,1.861l8.654,8.654a1.315,1.315,0,0,0,1.855,0l.786-.786a1.3,1.3,0,0,0,.383-.927,1.261,1.261,0,0,0-.383-.91L6.572,53.515h38.1A1.36,1.36,0,0,0,46,52.168V51.057A1.334,1.334,0,0,0,44.651,49.759Z" transform="translate(0 -41.674)"/>
    </g>
  </g>
</svg>
