<svg xmlns="http://www.w3.org/2000/svg" width="40" height="40" viewBox="0 0 40 40">
  <g id="linkedin_icon" transform="translate(0 0.001)">
    <circle id="Ellipse_4" data-name="Ellipse 4" cx="20" cy="20" r="20" transform="translate(0 -0.001)" fill="#007ab9"/>
    <g id="Group_7" data-name="Group 7" transform="translate(12.91 11.157)">
      <path id="Path_17" data-name="Path 17" d="M43.388,33.53v6.035h-3.5v-5.63c0-1.414-.505-2.379-1.772-2.379a1.914,1.914,0,0,0-1.795,1.279,2.4,2.4,0,0,0-.116.853v5.877h-3.5s.047-9.536,0-10.523h3.5v1.491c-.007.012-.017.023-.023.034h.023v-.034a3.474,3.474,0,0,1,3.153-1.738c2.3,0,4.028,1.5,4.028,4.736ZM29.048,23.969A1.823,1.823,0,1,0,29,27.606h.023a1.824,1.824,0,1,0,.023-3.637Zm-1.772,15.6h3.5V29.041h-3.5Z" transform="translate(-27.068 -23.969)" fill="#f1f2f2"/>
    </g>
  </g>
</svg>
