<svg xmlns="http://www.w3.org/2000/svg" width="20" height="29" viewBox="0 0 20 29">
  <g id="map-icon" transform="translate(-70.573)">
    <g id="Group_12" data-name="Group 12" transform="translate(70.573)">
      <path id="Path_22" data-name="Path 22" d="M80.573,0a10.272,10.272,0,0,0-10,10.5c0,7.187,8.949,17.738,9.33,18.184a.872.872,0,0,0,1.34,0c.381-.446,9.33-11,9.33-18.184A10.272,10.272,0,0,0,80.573,0Zm0,15.787A5.168,5.168,0,0,1,75.542,10.5a5.037,5.037,0,1,1,10.062,0A5.168,5.168,0,0,1,80.573,15.787Z" transform="translate(-70.573)" fill="#656565"/>
    </g>
  </g>
</svg>
