<svg xmlns="http://www.w3.org/2000/svg" width="21" height="21" viewBox="0 0 21 21">
  <g id="phone_icon" transform="translate(0 -0.394)">
    <g id="Group_11" data-name="Group 11" transform="translate(0 0.394)">
      <g id="Group_10" data-name="Group 10" transform="translate(0 0)">
        <path id="Path_21" data-name="Path 21" d="M20.529,17l-3.243-3.251A1.688,1.688,0,0,0,14.9,13.8l-1.634,1.637-.322-.18a16.26,16.26,0,0,1-3.93-2.849A16.387,16.387,0,0,1,6.167,8.46c-.061-.11-.118-.215-.176-.316l1.1-1.1.539-.541a1.7,1.7,0,0,0,.043-2.39L4.427.865A1.687,1.687,0,0,0,2.043.91l-.914.921.025.025A5.3,5.3,0,0,0,.4,3.188,5.531,5.531,0,0,0,.066,4.539c-.428,3.558,1.194,6.81,5.6,11.223,6.086,6.1,10.99,5.639,11.2,5.616a5.47,5.47,0,0,0,1.351-.34,5.264,5.264,0,0,0,1.324-.752l.02.018.926-.909A1.7,1.7,0,0,0,20.529,17Z" transform="translate(0 -0.394)" fill="#656565"/>
      </g>
    </g>
  </g>
</svg>
