<?xml version="1.0" encoding="utf-8"?>
<!-- Svg Vector Icons : http://www.onlinewebfonts.com/icon -->
<!DOCTYPE svg PUBLIC "-//W3C//DTD SVG 1.1//EN" "http://www.w3.org/Graphics/SVG/1.1/DTD/svg11.dtd">
<svg version="1.1" xmlns="http://www.w3.org/2000/svg" xmlns:xlink="http://www.w3.org/1999/xlink" x="0px" y="0px" viewBox="0 0 1000 1000" enable-background="new 0 0 1000 1000" xml:space="preserve">
<metadata> Svg Vector Icons : http://www.onlinewebfonts.com/icon </metadata>
<g><g transform="translate(0.000000,511.000000) scale(0.100000,-0.100000)"><path d="M2815.4,4823.6c-553.8-127.6-1033.6-507.9-1288.8-1023.4c-148-303.7-188.9-482.3-186.3-842.2c2.6-472.1,119.9-816.7,403.2-1179.1c331.8-423.6,829.4-678.8,1398.5-714.6l224.6-15.3v150.6c0,257.8,0,255.2-239.9,273.1c-607.4,43.4-1117.8,441.5-1322,1036.2c-84.2,245-84.2,655.9,2.6,916.2c142.9,439,502.8,803.9,944.3,959.6c176.1,61.3,597.2,84.2,798.8,43.4c186.3-38.3,459.4-173.5,627.8-306.3c114.8-91.9,285.8-293.5,375.2-449.2c25.5-40.8,38.3-38.3,199.1,33.2c94.4,43.4,171,91.9,171,109.7c0,68.9-219.5,362.4-393,525.7c-222,209.3-444.1,344.5-717.1,433.9C3563.2,4856.8,3070.6,4879.7,2815.4,4823.6z"/><path d="M5829.4,3606.2C4859.6,3504.2,4032.8,2771.7,3798,1807c-79.1-319-79.1-778.4-2.6-1092.3C4037.9-262.7,4859.6-985,5847.3-1084.5c832-81.7,1646.1,273.1,2133.5,936.6c454.3,615.1,587,1408.8,357.3,2123.3C7993.6,3047.3,6952.3,3723.6,5829.4,3606.2z M6554.2,3159.6c229.7-51,594.6-234.8,786-393C8024.2,2200,8236,1202.2,7843,398.3C7595.5-104.5,7090.2-510.3,6541.5-643c-262.9-63.8-684-58.7-941.7,12.8C4770.3-400.5,4198.6,296.2,4142.5,1146c-76.6,1140.8,893.2,2128.4,2028.9,2064.6C6291.3,3205.6,6462.3,3182.6,6554.2,3159.6z"/><path d="M1582.8,1271.1C947.3,888.3,490.5,314.1,253.1-395.4C184.2-602.2,100-944.1,100-1020.7c0-23,63.8-43.4,183.8-61.3c199.1-30.6,224.6-25.5,224.6,43.4c0,99.5,127.6,546.1,214.4,742.6c173.5,403.2,497.7,814.1,837.1,1069.3l145.5,107.2l173.5-132.7C2095.7,582,2399.4,434,2662.3,367.6c283.3-71.4,900.9-66.4,977.5,10.2c7.7,7.7-5.1,94.4-30.6,194l-45.9,183.8L3433,735.1c-556.4-79.1-1036.1,71.5-1431.7,451.7c-114.8,112.3-214.4,201.6-219.5,199.1C1776.7,1385.9,1687.4,1332.3,1582.8,1271.1z"/><path d="M1146.4-1268.2c-538.5-513-801.4-783.5-798.8-814.1c2.5-25.5,35.7-109.7,68.9-188.8l63.8-140.4l336.9-7.7l336.9-7.7l48.5-191.4c173.5-676.3,663.5-1283.7,1322-1641c283.3-153.1,913.6-375.2,1071.9-375.2c23,0,63.8,63.8,102.1,158.2c35.7,89.3,66.4,168.4,71.5,176.1c2.6,7.7-84.2,89.3-194,181.2c-426.2,357.3-666.1,803.9-758,1411.3c-20.4,140.4-38.3,262.9-38.3,273.1c0,10.2,150.6,23,336.9,25.5l334.3,7.6l71.5,173.5l71.5,171l-806.5,773.3c-441.5,423.7-811.6,773.3-821.8,775.8C1957.9-502.6,1587.9-847.1,1146.4-1268.2z M2460.7-1533.7l484.9-469.6l-285.8-2.6h-288.4v-176.1c0-635.5,168.4-1288.8,431.3-1671.7c45.9-63.8,74-117.4,66.4-117.4s-79.1,33.2-160.8,74c-334.3,168.4-689.1,505.3-885.6,839.6c-127.6,216.9-255.2,587-298.6,857.5l-30.6,193.9h-252.7c-137.8,0-247.6,10.2-242.4,23c10.2,28.1,946.8,921.3,964.7,921.3C1970.7-1061.5,2195.3-1273.3,2460.7-1533.7z"/><path d="M4134.8-872.7c-255.2-153.1-477.2-313.9-630.4-451.7l-125-114.8l137.8-142.9l137.8-140.4l181.2,148c252.7,206.7,421.1,316.4,456.8,298.6c17.9-7.7,104.6-79.1,196.5-155.7c91.9-76.6,275.6-196.5,408.3-265.4c587-306.3,1253.1-377.7,1893.6-204.2c275.6,74,666.1,278.2,908.5,472.1l211.8,168.4l171-114.8c622.7-418.6,1056.6-1013.2,1265.8-1738c74-252.7,142.9-724.8,142.9-974.9v-163.3H6926.8H4362V-4443v-191.4h2753.7h2753.7l15.3,79.1c7.6,43.4,15.3,194,15.3,334.3c0,1513.4-661,2682.2-1921.7,3389.2l-148,81.7L7633.7-939c-316.5-308.8-630.4-487.4-1043.8-597.2c-257.8-66.4-768.2-61.3-1041.3,12.8c-393,104.6-717.1,296-1015.7,594.6c-94.4,94.4-181.2,173.5-191.4,173.5C4331.3-755.3,4239.5-808.9,4134.8-872.7z"/></g></g>
</svg>