<svg xmlns="http://www.w3.org/2000/svg" width="40" height="40" viewBox="0 0 40 40">
  <g id="twitter_1_" data-name="twitter (1)" transform="translate(-0.001)">
    <circle id="Ellipse_5" data-name="Ellipse 5" cx="20" cy="20" r="20" transform="translate(0.001 0)" fill="#55acee"/>
    <g id="Group_8" data-name="Group 8" transform="translate(9.514 12.623)">
      <path id="Path_18" data-name="Path 18" d="M47.353,36.169a9.108,9.108,0,0,1-2.622.718,4.577,4.577,0,0,0,2.008-2.525,9.139,9.139,0,0,1-2.9,1.107,4.569,4.569,0,0,0-7.779,4.164,12.958,12.958,0,0,1-9.409-4.77,4.57,4.57,0,0,0,1.412,6.095A4.533,4.533,0,0,1,26,40.386c0,.019,0,.039,0,.058a4.568,4.568,0,0,0,3.662,4.476A4.583,4.583,0,0,1,27.6,45a4.57,4.57,0,0,0,4.264,3.17,9.215,9.215,0,0,1-6.758,1.89A12.982,12.982,0,0,0,45.089,39.122c0-.2,0-.395-.013-.59a9.257,9.257,0,0,0,2.278-2.363Z" transform="translate(-25.103 -34.028)" fill="#f1f2f2"/>
    </g>
  </g>
</svg>
